<?xml version="1.0" standalone="no"?><!DOCTYPE svg PUBLIC "-//W3C//DTD SVG 1.1//EN" "http://www.w3.org/Graphics/SVG/1.1/DTD/svg11.dtd"><svg t="1683101733430" class="icon" viewBox="0 0 1024 1024" version="1.1" xmlns="http://www.w3.org/2000/svg" p-id="32602" xmlns:xlink="http://www.w3.org/1999/xlink" width="200" height="200"><path d="M512 128a384 384 0 1 0 0 768A384 384 0 0 0 512 128z m-128 544a32 32 0 0 1-22.464-54.784l105.216-103.68-105.536-107.072a32 32 0 1 1 45.568-44.928l128 129.792a32 32 0 0 1-0.32 45.312l-128 126.208A32.128 32.128 0 0 1 384 672z m278.464-135.424l-128 126.208a32 32 0 1 1-44.928-45.568l105.216-103.68-105.536-107.072a32 32 0 1 1 45.568-44.928l128 129.792a32 32 0 0 1-0.32 45.248z" fill="#F5A623" p-id="32603"></path></svg>