<?xml version="1.0" standalone="no"?><!DOCTYPE svg PUBLIC "-//W3C//DTD SVG 1.1//EN" "http://www.w3.org/Graphics/SVG/1.1/DTD/svg11.dtd"><svg t="1683102805511" class="icon" viewBox="0 0 1024 1024" version="1.1" xmlns="http://www.w3.org/2000/svg" p-id="100637" xmlns:xlink="http://www.w3.org/1999/xlink" width="200" height="200"><path d="M21.36 106.73m64 0l853.33 0q64 0 64 64l0 682.67q0 64-64 64l-853.33 0q-64 0-64-64l0-682.67q0-64 64-64Z" fill="#97E5D9" p-id="100638"></path><path d="M629.59 340.15v-43.54h246.75v43.54zM359.78 830.32l-90.12-90.13-90.09 90.13-29.7-29.21L240 710.48l-89.63-89.58 29.2-29.71 90.09 89.63 89.62-89.63L389 620.9l-89.62 89.58 90.12 90.13z" fill="#FFA32B" p-id="100639"></path><path d="M393.07 340.15H291.2V442h-43.54V340.15H146.28v-43.54h101.38V195.24h43.54v101.37h101.87z m236.5 348.31h246.8V732h-246.8zM753 633.67c-11.58 0-19.71-1.79-24.29-5.38s-6.92-12-6.92-25.33 2.29-21.75 6.92-25.33 12.71-5.38 24.29-5.38c11.29 0 19.21 1.79 23.83 5.38s6.92 12 6.92 25.33-2.33 21.75-6.92 25.33-12.59 5.38-23.83 5.38z m0 215.58c-11.58 0-19.71-1.79-24.29-5.37s-6.92-12.21-6.92-25.88q0-19.93 6.92-25.08c4.58-3.42 12.71-5.13 24.29-5.13 11.29 0 19.21 1.71 23.83 5.13s6.92 11.79 6.92 25.08c0 13.67-2.33 22.29-6.92 25.88s-12.59 5.37-23.83 5.37z" fill="#12C3A8" p-id="100640"></path><path d="M938.68 85.39H533.32v-0.12h-42.67v0.12H85.35A85.33 85.33 0 0 0 0 170.73v682.66a85.33 85.33 0 0 0 85.33 85.34h853.35a85.34 85.34 0 0 0 85.32-85.34V170.73a85.34 85.34 0 0 0-85.32-85.34z m0 42.67a42.72 42.72 0 0 1 42.67 42.67v319.88h-448V128.06z m-896 42.67a42.72 42.72 0 0 1 42.67-42.67h405.3v362.55h-448z m0 682.66V533.27h448v362.79H85.35a42.72 42.72 0 0 1-42.67-42.67z m896 42.67H533.32V533.27h448v320.12a42.72 42.72 0 0 1-42.64 42.67z" fill="#12C3A8" p-id="100641"></path></svg>