<?xml version="1.0" standalone="no"?><!DOCTYPE svg PUBLIC "-//W3C//DTD SVG 1.1//EN" "http://www.w3.org/Graphics/SVG/1.1/DTD/svg11.dtd"><svg t="1683102172509" class="icon" viewBox="0 0 1024 1024" version="1.1" xmlns="http://www.w3.org/2000/svg" p-id="72352" xmlns:xlink="http://www.w3.org/1999/xlink" width="200" height="200"><path d="M501.76 758.784c-119.296 0-213.504-93.696-213.504-213.504S382.464 331.776 501.76 331.776s213.504 93.696 213.504 213.504-94.208 213.504-213.504 213.504z m0-341.504c-72.704 0-128 55.296-128 128s55.296 128 128 128 128-55.296 128-128-55.296-128-128-128zM981.504 788.992h-289.28c-23.552 0-42.496 18.944-42.496 42.496 0 23.552 18.944 42.496 42.496 42.496h289.28c23.552 0 42.496-18.944 42.496-42.496 0-23.552-18.944-42.496-42.496-42.496z" p-id="72353" fill="#efb336"></path><path d="M794.112 686.592v289.28c0 23.552 18.944 42.496 42.496 42.496 23.552 0 42.496-18.944 42.496-42.496v-289.28c0-23.552-18.944-42.496-42.496-42.496-23.552 0-42.496 18.944-42.496 42.496z" p-id="72354" fill="#efb336"></path><path d="M574.976 874.496H106.496c-12.8 0-21.504-8.704-21.504-21.504V298.496c0-12.8 8.704-21.504 21.504-21.504h181.76c16.896 0 29.696-8.704 38.4-25.6l51.2-102.4h247.296l51.2 102.4c8.704 16.896 21.504 25.6 38.4 25.6h181.76c12.8 0 21.504 8.704 21.504 21.504v318.464H1003.52V298.496c0-59.904-47.104-106.496-106.496-106.496h-156.16l-51.2-102.4c-8.704-16.896-21.504-25.6-38.4-25.6H352.256c-16.896 0-29.696 12.8-38.4 25.6l-51.2 102.4H106.496C47.104 192 0 239.104 0 298.496v554.496c0 59.904 47.104 106.496 106.496 106.496h467.968v-84.992z" p-id="72355" fill="#efb336"></path></svg>