<svg width="175" xmlns:xlink="http://www.w3.org/1999/xlink" xmlns="http://www.w3.org/2000/svg" height="175" viewBox="0 0 175 175"><defs/><path fill="#e08a13" d="M10.9,159.6L164.1,159.6C167.4,159.7,170.0,160.8,172.0,162.7C174.0,164.6,175.0,167.3,175.0,170.6L175.0,175.0L.0,175.0L.0,170.6C.0,167.7,1.0,165.2,3.0,163.0C5.0,160.9,7.6,159.7,10.9,159.6zM160.8,57.9L141.2,7.7C140.0,5.4,138.5,3.6,136.5,2.1C134.5,.7,132.4,.0,130.2,.0L44.8,.0C42.6,.1,40.6,.8,38.7,2.1C36.8,3.3,35.6,4.8,35.0,6.5L14.2,57.9C13.6,59.6,13.4,61.5,13.5,63.4C13.6,65.4,14.2,67.2,15.4,68.9L71.1,146.7C72.2,148.3,73.6,149.4,75.1,150.0C76.6,150.6,78.2,150.9,79.8,150.9L82.0,150.9L82.0,99.5L94.0,99.5L94.0,149.9C95.6,149.8,97.3,149.3,98.7,148.4C100.1,147.6,101.1,146.6,101.7,145.4L157.6,67.9C160.8,64.6,161.9,61.3,160.8,57.9zM88.5,75.5C81.3,75.3,75.4,72.9,70.8,68.2C66.1,63.5,63.6,57.5,63.4,50.2C63.6,43.1,66.1,37.1,70.8,32.5C75.4,27.8,81.3,25.3,88.5,25.1C95.8,25.3,101.8,27.8,106.5,32.5C111.1,37.1,113.6,43.1,113.8,50.2C113.6,57.1,111.1,62.9,106.5,67.8C101.8,72.7,95.8,75.3,88.5,75.5z" fill-rule="nonzero" id="shape1"/></svg>