<svg width="162" xmlns:xlink="http://www.w3.org/1999/xlink" xmlns="http://www.w3.org/2000/svg" height="162" viewBox="0 0 162 161.771"><defs/><g id="group1"><path fill="#0e6ec5" d="M158.2,.4C160.1,.4,161.7,2.0,161.7,3.9L161.7,117.2C161.7,119.1,160.1,120.7,158.2,120.7L3.9,120.7C2.0,120.7,.4,119.1,.4,117.2L.4,3.9C.4,2.0,2.0,.4,3.9,.4L158.2,.4zM158.2,.0L3.9,.0C1.8,.0,.0,1.8,.0,3.9L.0,117.2C.0,119.3,1.8,121.1,3.9,121.1L158.2,121.1C160.4,121.1,162.1,119.3,162.1,117.2L162.1,3.9C162.1,1.8,160.4,.0,158.2,.0z" fill-rule="nonzero" id="shape2"/><path fill="#01b0f1" d="M158.0,.0L3.7,.0C1.7,.0,.0,1.7,.0,3.7L.0,117.0C.0,119.0,1.7,120.7,3.7,120.7L158.0,120.7C160.1,120.7,161.7,119.0,161.7,117.0L161.7,3.7C161.7,1.7,160.1,.0,158.0,.0zM156.1,112.3C156.1,113.8,154.8,115.0,153.3,115.0L8.4,115.0C6.9,115.0,5.7,113.8,5.7,112.3L5.7,8.4C5.7,6.9,6.9,5.7,8.4,5.7L153.3,5.7C154.8,5.7,156.1,6.9,156.1,8.4L156.1,112.3z" transform="translate(0.195313,0.195313)" fill-rule="nonzero" id="shape3"/><path fill="#01b0f1" d="M.0,.0L99.6,.0L99.6,9.4L.0,9.4L.0,.0z" transform="translate(31.191406,152.207031)" fill-rule="nonzero" id="shape4"/><path fill="#0e6ec5" d="M95.1,.4C97.6,.4,99.6,2.4,99.6,4.9L99.6,4.9C99.6,7.4,97.6,9.4,95.1,9.4L4.9,9.4C2.4,9.4,.4,7.4,.4,4.9L.4,4.9C.4,2.4,2.4,.4,4.9,.4L95.1,.4M95.1,.0L4.9,.0C2.2,.0,.0,2.2,.0,4.9L.0,4.9C.0,7.6,2.2,9.8,4.9,9.8L95.1,9.8C97.8,9.8,100.0,7.6,100.0,4.9L100.0,4.9C100.0,2.2,97.8,.0,95.1,.0z" transform="translate(30.996094,152.005859)" fill-rule="nonzero" id="shape5"/><path fill="#0fce9a" d="M.0,25.4C.0,39.4,11.4,50.8,25.4,50.8C39.4,50.8,50.8,39.4,50.8,25.4C50.8,11.4,39.4,.0,25.4,.0C11.4,.0,.0,11.4,.0,25.4z" transform="translate(110.253906,92.443359)" fill-rule="nonzero" id="shape6"/><path fill="#ffffff" d="M1.9,4.5L1.4,4.5L1.4,6.9C1.4,7.1,1.4,7.4,1.2,7.6C1.1,7.7,.9,7.8,.7,7.8C.5,7.8,.3,7.7,.2,7.6C.1,7.4,.0,7.1,.0,6.9L.0,1.1C-0.0,.8,.0,.6,.2,.4C.4,.2,.6,.1,.9,.1L3.2,.1C3.4,.1,3.7,.1,4.0,.2C4.2,.2,4.4,.3,4.6,.4C4.8,.5,5.0,.6,5.2,.8C5.3,1.0,5.5,1.2,5.6,1.4C5.7,1.7,5.7,1.9,5.7,2.2C5.7,2.7,5.6,3.2,5.3,3.6C4.9,3.9,4.4,4.2,3.9,4.3C4.2,4.4,4.4,4.7,4.6,4.9C4.9,5.2,5.1,5.5,5.3,5.8C5.4,6.1,5.6,6.4,5.7,6.7C5.7,6.8,5.8,7.0,5.8,7.2C5.8,7.3,5.8,7.4,5.7,7.5C5.7,7.6,5.6,7.7,5.5,7.7C5.4,7.8,5.3,7.8,5.1,7.8C5.0,7.8,4.9,7.8,4.8,7.7C4.6,7.6,4.5,7.5,4.5,7.4C4.4,7.3,4.3,7.1,4.2,6.8L3.6,5.8C3.4,5.5,3.2,5.2,3.0,5.0C2.9,4.8,2.7,4.7,2.5,4.6C2.3,4.5,2.1,4.4,1.9,4.5zM2.7,1.3L1.4,1.3L1.4,3.4L2.7,3.4C3.0,3.4,3.2,3.3,3.5,3.3C4.0,3.2,4.3,2.8,4.2,2.3C4.2,2.1,4.2,1.9,4.1,1.7C4.0,1.6,3.9,1.5,3.7,1.4C3.4,1.3,3.0,1.3,2.7,1.3L2.7,1.3zM11.6,1.3L8.4,1.3L8.4,3.2L11.3,3.2C11.5,3.2,11.7,3.2,11.8,3.3C11.9,3.4,12.0,3.6,12.0,3.7C12.0,3.9,11.9,4.0,11.8,4.2C11.7,4.3,11.5,4.3,11.3,4.3L8.4,4.3L8.4,6.5L11.7,6.5C11.9,6.5,12.0,6.5,12.2,6.6C12.3,6.8,12.4,6.9,12.4,7.1C12.4,7.2,12.3,7.4,12.2,7.5C12.0,7.6,11.9,7.7,11.7,7.7L7.9,7.7C7.6,7.7,7.4,7.6,7.2,7.5C7.0,7.3,7.0,7.0,7.0,6.7L7.0,1.1C7.0,.9,7.0,.7,7.1,.5C7.1,.4,7.2,.3,7.4,.2C7.5,.2,7.7,.1,7.9,.1L11.6,.1C11.8,.1,11.9,.2,12.1,.3C12.2,.4,12.2,.6,12.2,.7C12.2,.9,12.2,1.0,12.1,1.1C11.9,1.3,11.8,1.3,11.6,1.3zM18.7,5.4C18.8,5.8,18.6,6.3,18.4,6.6C18.2,7.0,17.9,7.3,17.5,7.5C17.0,7.7,16.5,7.8,16.0,7.8C15.4,7.8,14.8,7.7,14.3,7.4C14.0,7.2,13.7,6.9,13.5,6.6C13.3,6.3,13.2,5.9,13.2,5.6C13.2,5.4,13.3,5.3,13.4,5.1C13.5,5.0,13.7,4.9,13.9,4.9C14.0,4.9,14.1,5.0,14.2,5.1C14.4,5.2,14.4,5.4,14.5,5.5C14.6,5.8,14.7,6.0,14.8,6.1C14.9,6.3,15.0,6.4,15.2,6.5C15.4,6.7,15.7,6.7,16.0,6.7C16.3,6.7,16.7,6.6,17.0,6.4C17.2,6.2,17.4,5.9,17.4,5.6C17.4,5.4,17.3,5.1,17.1,5.0C17.0,4.8,16.8,4.7,16.6,4.6C16.3,4.5,16.0,4.4,15.7,4.4C15.3,4.3,14.9,4.1,14.5,3.9C14.1,3.8,13.9,3.5,13.7,3.2C13.4,2.9,13.3,2.5,13.4,2.1C13.3,1.3,13.8,.6,14.6,.3C15.0,.1,15.5,.0,16.0,.0C16.3,.0,16.7,.1,17.1,.2C17.4,.3,17.6,.4,17.9,.6C18.0,.8,18.2,1.0,18.3,1.2C18.4,1.4,18.4,1.6,18.4,1.8C18.4,2.0,18.4,2.2,18.3,2.3C18.2,2.5,18.0,2.6,17.8,2.6C17.7,2.6,17.6,2.5,17.5,2.4C17.3,2.3,17.3,2.2,17.2,2.0C17.1,1.7,16.9,1.5,16.7,1.3C16.5,1.1,16.2,1.1,15.9,1.1C15.6,1.1,15.2,1.2,15.0,1.3C14.8,1.5,14.7,1.7,14.7,2.0C14.7,2.1,14.7,2.2,14.8,2.4C14.8,2.5,15.0,2.6,15.1,2.6C15.2,2.7,15.3,2.8,15.5,2.8C15.6,2.9,15.8,3.0,16.2,3.0C16.5,3.1,16.9,3.2,17.2,3.4C17.5,3.5,17.8,3.6,18.0,3.8C18.3,4.0,18.4,4.2,18.6,4.5C18.7,4.8,18.8,5.1,18.7,5.4zM19.9,4.6L19.9,.9C19.9,.7,20.0,.4,20.1,.2C20.3,.1,20.4,.0,20.6,.0C20.8,.0,21.0,.1,21.2,.2C21.3,.4,21.4,.7,21.4,.9L21.4,4.6C21.4,5.0,21.4,5.4,21.5,5.7C21.6,6.0,21.7,6.2,22.0,6.4C22.2,6.5,22.6,6.6,22.9,6.6C23.4,6.6,23.8,6.4,24.1,6.1C24.3,5.8,24.4,5.3,24.4,4.7L24.4,.9C24.4,.7,24.4,.4,24.6,.2C24.7,.1,24.9,.0,25.1,.0C25.3,.0,25.5,.1,25.6,.2C25.8,.4,25.8,.7,25.8,.9L25.8,4.6C25.8,5.1,25.8,5.6,25.6,6.0C25.5,6.4,25.3,6.8,25.0,7.1C24.8,7.3,24.5,7.5,24.2,7.6C23.8,7.8,23.4,7.8,23.0,7.8C22.5,7.8,22.1,7.8,21.6,7.6C21.3,7.5,20.9,7.3,20.7,7.0C20.4,6.7,20.2,6.4,20.1,6.0C20.0,5.5,19.9,5.1,19.9,4.6zM28.7,.9L28.7,6.4L31.5,6.4C31.7,6.4,31.9,6.5,32.1,6.6C32.2,6.7,32.2,6.9,32.2,7.1C32.2,7.2,32.2,7.4,32.1,7.5C31.9,7.6,31.7,7.7,31.5,7.7L28.1,7.7C27.9,7.7,27.7,7.6,27.5,7.5C27.3,7.3,27.3,7.0,27.3,6.7L27.3,.9C27.3,.7,27.3,.4,27.5,.2C27.6,.1,27.8,.0,28.0,.0C28.2,.0,28.4,.1,28.5,.2C28.6,.4,28.7,.7,28.7,.9zM36.5,1.4L34.9,1.4L34.9,6.9C34.9,7.1,34.9,7.4,34.7,7.6C34.6,7.7,34.4,7.8,34.2,7.8C34.0,7.8,33.8,7.7,33.7,7.6C33.6,7.4,33.5,7.1,33.5,6.9L33.5,1.4L32.0,1.4C31.8,1.4,31.6,1.3,31.5,1.2C31.3,1.1,31.3,.9,31.3,.8C31.3,.6,31.3,.4,31.5,.3C31.6,.2,31.8,.1,32.0,.1L36.5,.1C36.7,.1,36.8,.2,37.0,.3C37.1,.4,37.2,.6,37.2,.8C37.2,.9,37.1,1.1,37.0,1.2C36.8,1.3,36.7,1.4,36.5,1.4z" transform="translate(117.532025,114.782661)" fill-rule="nonzero" id="shape7"/><path fill="#0fce9a" d="M9.9,34.9L11.4,27.6L6.8,28.5L7.6,24.0L.0,26.5L22.3,.0L32.2,8.4L9.9,34.9zM70.7,34.9L69.3,27.6L73.9,28.5L73.1,24.0L80.7,26.5L58.4,.0L48.5,8.4L70.7,34.9z" transform="translate(40.708984,70.691406)" fill-rule="nonzero" id="shape8"/><path fill="#ffbe00" d="M72.8,36.4C72.8,56.5,56.5,72.8,36.4,72.8C16.3,72.8,.0,56.5,.0,36.4C.0,16.3,16.3,.0,36.4,.0C56.5,.0,72.8,16.3,72.8,36.4zM36.4,15.2C24.7,15.2,15.2,24.7,15.3,36.4C15.3,48.1,24.7,57.6,36.4,57.5C48.1,57.5,57.6,48.1,57.6,36.4C57.6,24.7,48.1,15.2,36.4,15.2z" transform="translate(44.197266,14.544922)" fill-rule="nonzero" id="shape9"/><path fill="#ffbe00" d="M19.1,5.8L19.1,5.8L19.1,.0L1.7,.0L1.7,5.8C.7,5.7,.0,5.5,.0,6.9C.0,8.2,.7,10.7,1.7,11.2L1.7,17.0L1.7,17.0C2.0,21.3,5.4,24.7,9.7,25.1L9.7,32.6L4.3,32.6C4.1,32.6,3.8,32.7,3.7,32.9C3.6,33.2,3.6,33.4,3.7,33.7C3.8,33.9,4.1,34.0,4.3,34.0L16.5,34.0C16.8,34.0,17.1,33.7,17.1,33.3C17.1,32.9,16.8,32.6,16.5,32.6L11.1,32.6L11.1,25.1C15.3,24.7,18.7,21.3,19.0,17.0L19.1,17.0L19.1,11.3L19.1,11.3C20.4,11.3,21.2,8.4,21.2,6.9C21.2,5.4,20.4,5.8,19.1,5.8z" transform="translate(70.273438,35.800781)" fill-rule="nonzero" id="shape10"/><path fill="#ffffff" d="M.1,3.0C.1,3.0,-1.0,9.8,5.8,12.3C5.8,12.3,7.9,12.7,5.5,12.0C4.2,11.6,.5,9.1,.4,3.8C.1,-4.3,.1,3.0,.1,3.0z" transform="translate(73.543299,46.774964)" fill-rule="nonzero" id="shape11"/></g></svg>