<svg width="160" xmlns:xlink="http://www.w3.org/1999/xlink" xmlns="http://www.w3.org/2000/svg" height="175" viewBox="0 0 160 175"><defs/><g id="group1"><path fill="#d6f3fa" d="M120.9,152.7L20.9,152.7C9.4,152.7,.0,143.3,.0,131.8L.0,20.9C.0,9.4,9.4,.0,20.9,.0L120.9,.0C132.4,.0,141.8,9.4,141.8,20.9L141.8,131.8C141.8,143.3,132.4,152.7,120.9,152.7z" fill-rule="nonzero" id="shape2"/><path fill="#18bae5" d="M78.0,109.6L78.0,138.6C78.0,140.6,76.4,142.3,74.4,142.3C72.4,142.3,70.7,140.6,70.7,138.6L70.7,109.6C70.7,107.6,72.4,105.9,74.4,105.9C76.4,105.9,78.0,107.6,78.0,109.6zM128.2,105.9C126.2,105.9,124.5,107.6,124.5,109.6L124.5,138.6C124.5,140.6,126.2,142.3,128.2,142.3C130.2,142.3,131.8,140.6,131.8,138.6L131.8,109.6C131.8,107.6,130.2,105.9,128.2,105.9zM25.8,36.9L14.9,36.9C12.9,36.9,11.2,38.5,11.2,40.5C11.2,42.5,12.9,44.1,14.9,44.1L25.8,44.1C27.8,44.1,29.4,42.5,29.4,40.5C29.4,38.5,27.8,36.9,25.8,36.9zM40.5,9.6L40.5,155.0C40.5,160.3,36.2,164.6,30.9,164.6L9.6,164.6C4.3,164.6,.0,160.3,.0,155.0L.0,9.6C.0,4.3,4.3,.0,9.6,.0L30.9,.0C36.2,.0,40.5,4.3,40.5,9.6zM31.9,9.6C31.9,9.1,31.5,8.6,30.9,8.6L9.6,8.6C9.1,8.6,8.6,9.1,8.6,9.6L8.6,155.0C8.6,155.5,9.1,156.0,9.6,156.0L30.9,156.0C31.4,156.0,31.9,155.5,31.9,155.0L31.9,9.6L31.9,9.6zM94.6,9.6L94.6,155.0C94.6,160.3,90.2,164.6,84.9,164.6L63.6,164.6C58.3,164.6,54.0,160.3,54.0,155.0L54.0,9.6C54.0,4.3,58.3,.0,63.6,.0L84.9,.0C90.2,.0,94.6,4.3,94.6,9.6zM85.9,9.6C85.9,9.1,85.5,8.6,84.9,8.6L63.6,8.6C63.1,8.6,62.6,9.1,62.6,9.6L62.6,155.0C62.6,155.5,63.1,156.0,63.6,156.0L84.9,156.0C85.4,156.0,85.9,155.5,85.9,155.0L85.9,9.6L85.9,9.6zM148.7,9.6L148.7,155.0C148.7,160.3,144.4,164.6,139.1,164.6L117.8,164.6C112.5,164.6,108.2,160.3,108.2,155.0L108.2,9.6C108.2,4.3,112.5,.0,117.8,.0L139.1,.0C144.4,.0,148.7,4.3,148.7,9.6zM140.1,9.6C140.1,9.1,139.6,8.6,139.1,8.6L117.8,8.6C117.3,8.6,116.8,9.1,116.8,9.6L116.8,155.0C116.8,155.5,117.3,156.0,117.8,156.0L139.1,156.0C139.6,156.0,140.1,155.5,140.1,155.0L140.1,9.6z" transform="translate(11.484375,10.410156)" fill-rule="nonzero" id="shape3"/></g></svg>