<?xml version="1.0" standalone="no"?><!DOCTYPE svg PUBLIC "-//W3C//DTD SVG 1.1//EN" "http://www.w3.org/Graphics/SVG/1.1/DTD/svg11.dtd"><svg t="1683102282927" class="icon" viewBox="0 0 1024 1024" version="1.1" xmlns="http://www.w3.org/2000/svg" p-id="77503" xmlns:xlink="http://www.w3.org/1999/xlink" width="200" height="200"><path d="M505.856 598.016L6.144 311.296 505.856 12.288l512 301.056-512 284.672z m-368.64-288.768l370.688 210.944 380.928-210.944L505.856 88.064l-368.64 221.184zM901.12 716.8h100.352l4.096 2.048 12.288 8.192-512 284.672L6.144 727.04l12.288-8.192 4.096-2.048H122.88v6.144l2.048-4.096 380.928 217.088 393.216-217.088 2.048 4.096z" fill="#efb336" p-id="77504"></path><path d="M901.12 520.192h100.352l4.096 2.048 12.288 8.192-512 284.672L6.144 530.432l12.288-8.192 4.096-2.048H122.88v6.144l2.048-6.144 380.928 219.136 393.216-219.136 2.048 6.144z" fill="#efb336" p-id="77505"></path></svg>