<svg width="200" xmlns:xlink="http://www.w3.org/1999/xlink" xmlns="http://www.w3.org/2000/svg" height="200" viewBox="0 0 200 200"><defs/><g id="group1"><path fill="#00b050" d="M100.0,200.0C15.0,200.0,.0,185.0,.0,100.0C.0,15.0,15.0,.0,100.0,.0C185.0,.0,200.0,15.0,200.0,100.0C200.0,185.0,185.0,200.0,100.0,200.0zM100.0,5.0C19.3,5.0,5.0,19.3,5.0,100.0C5.0,180.7,19.3,195.0,100.0,195.0C180.7,195.0,195.0,180.7,195.0,100.0C195.0,19.3,180.7,5.0,100.0,5.0z" fill-rule="nonzero" id="shape2"/><path fill-opacity="0.20" fill="#ffc000" d="M49.7,148.3C29.9,148.3,14.9,147.3,3.6,144.2C.9,131.5,.0,115.3,.0,95.0C.0,14.3,14.3,.0,95.0,.0C101.1,.0,106.8,.1,112.2,.3C126.1,11.3,129.7,31.7,129.7,68.3C129.7,136.3,117.6,148.3,49.7,148.3z" transform="translate(5.000000,5.000000)" fill-rule="nonzero" id="shape3"/><path fill="#eac1b2" d="M111.8,34.0C108.7,8.9,95.7,.0,84.5,.0C81.1,.1,77.8,1.2,74.9,3.0C69.3,6.2,62.9,7.8,56.5,7.5C50.0,7.8,43.7,6.2,38.1,3.0C35.2,1.2,31.8,.1,28.4,.0C17.3,.0,4.3,8.9,1.1,34.0C-1.2,52.2,.0,62.8,4.8,67.6C6.7,69.4,9.3,70.4,12.0,70.3C19.4,70.3,23.6,66.4,28.5,61.9C30.2,60.3,32.0,58.7,34.1,57.0C38.7,53.5,44.4,51.8,50.2,52.1C51.1,52.1,52.0,52.2,52.8,52.2C53.7,52.2,54.5,52.2,55.2,52.2L57.7,52.2C58.5,52.2,59.3,52.2,60.1,52.2C60.9,52.2,61.8,52.1,62.8,52.1C68.5,51.8,74.3,53.5,78.9,57.0C80.9,58.7,82.7,60.3,84.5,61.9C89.3,66.4,93.6,70.3,101.0,70.3C103.6,70.4,106.2,69.4,108.1,67.6C112.9,62.9,114.1,52.2,111.8,34.0L111.8,34.0z" transform="translate(48.842354,69.160000)" fill-rule="nonzero" id="shape4"/><path fill="#fe9d17" d="M129.4,44.7C125.7,11.7,110.7,.0,97.8,.0C93.8,.2,89.9,1.5,86.6,3.9C80.3,8.1,72.9,10.2,65.3,9.9C57.8,10.2,50.3,8.1,44.0,3.9C40.8,1.5,36.9,.2,32.9,.0C20.0,.0,4.9,11.7,1.3,44.7C-1.3,68.5,.0,82.6,5.6,88.7C7.6,91.1,10.7,92.5,13.8,92.4C22.4,92.4,27.3,87.3,32.9,81.3C34.9,79.3,37.0,77.1,39.4,74.9C44.5,70.4,51.2,68.1,58.1,68.5C59.1,68.5,60.1,68.5,61.1,68.5C62.1,68.6,63.0,68.6,63.9,68.6L66.8,68.6C67.6,68.6,68.6,68.6,69.5,68.5C70.5,68.5,71.5,68.5,72.6,68.5C79.4,68.1,86.1,70.4,91.2,74.9C93.7,77.1,95.7,79.2,97.7,81.3C103.4,87.3,108.3,92.4,116.8,92.4C120.0,92.5,123.0,91.1,125.1,88.7C130.6,82.6,132.0,68.5,129.4,44.7L129.4,44.7zM129.4,44.7C125.7,11.7,110.7,.0,97.8,.0C93.8,.2,89.9,1.5,86.6,3.9C80.3,8.1,72.9,10.2,65.3,9.9C57.8,10.2,50.3,8.1,44.0,3.9C40.8,1.5,36.9,.2,32.9,.0C20.0,.0,4.9,11.7,1.3,44.7C-1.3,68.5,.0,82.6,5.6,88.7C7.6,91.1,10.7,92.5,13.8,92.4C22.4,92.4,27.3,87.3,32.9,81.3C34.9,79.3,37.0,77.1,39.4,74.9C44.5,70.4,51.2,68.1,58.1,68.5C59.1,68.5,60.1,68.5,61.1,68.5C62.1,68.6,63.0,68.6,63.9,68.6L66.8,68.6C67.6,68.6,68.6,68.6,69.5,68.5C70.5,68.5,71.5,68.5,72.6,68.5C79.4,68.1,86.1,70.4,91.2,74.9C93.7,77.1,95.7,79.2,97.7,81.3C103.4,87.3,108.3,92.4,116.8,92.4C120.0,92.5,123.0,91.1,125.1,88.7C130.6,82.6,132.0,68.5,129.4,44.7L129.4,44.7zM124.1,44.9C121.1,17.4,108.5,7.6,97.8,7.6C94.4,7.8,91.2,8.9,88.4,10.9C81.2,14.3,73.3,16.0,65.3,15.9C57.4,16.0,49.5,14.3,42.2,10.9C39.5,8.9,36.3,7.8,32.9,7.6C22.2,7.6,9.6,17.4,6.5,44.9C4.3,64.9,5.5,76.6,10.1,81.7C11.8,83.7,14.4,84.8,17.0,84.8C24.1,84.8,28.2,80.5,32.9,75.6C34.6,73.8,36.3,72.0,38.4,70.2C43.6,65.5,54.3,64.8,59.3,64.8C60.1,64.8,61.0,64.8,61.8,64.9C62.7,64.9,63.4,64.9,64.1,64.9L66.5,64.9C67.3,64.9,68.0,64.9,68.8,64.9C69.6,64.8,70.5,64.8,71.4,64.8C76.4,64.8,87.0,65.5,92.3,70.2C94.3,72.0,96.0,73.8,97.7,75.6C102.4,80.5,106.5,84.8,113.7,84.8C116.3,84.8,118.8,83.7,120.6,81.7C125.2,76.6,126.3,64.9,124.1,44.9L124.1,44.9zM49.0,43.9L38.5,43.9L38.5,54.4C38.5,56.8,36.6,58.7,34.2,58.7C31.9,58.7,30.0,56.8,30.0,54.4L30.0,43.9L19.5,43.9C17.2,43.9,15.3,42.0,15.3,39.7C15.3,37.4,17.2,35.5,19.5,35.5L30.0,35.5L30.0,24.9C30.0,22.6,31.9,20.7,34.2,20.7C36.6,20.7,38.5,22.6,38.5,24.9L38.5,35.5L49.0,35.5C51.3,35.5,53.2,37.3,53.2,39.7C53.2,42.0,51.3,43.9,49.0,43.9L49.0,43.9zM98.2,20.7C101.7,20.7,104.5,23.5,104.5,27.0C104.5,30.5,101.7,33.3,98.2,33.3C94.7,33.3,91.9,30.5,91.9,27.0C91.9,23.5,94.7,20.7,98.2,20.7zM85.5,46.0C82.0,46.0,79.2,43.2,79.2,39.7C79.2,36.2,82.0,33.4,85.5,33.4C89.0,33.4,91.9,36.2,91.9,39.7C91.9,43.2,89.0,46.0,85.5,46.0zM98.2,58.6C94.7,58.6,91.9,55.8,91.9,52.3C91.9,48.8,94.7,46.0,98.2,46.0C101.7,46.0,104.5,48.8,104.5,52.3C104.5,55.8,101.7,58.6,98.2,58.6zM110.8,46.0C107.3,46.0,104.5,43.2,104.5,39.7C104.5,36.2,107.3,33.4,110.8,33.4C114.3,33.4,117.1,36.2,117.1,39.7C117.1,43.2,114.3,46.0,110.8,46.0zM110.8,46.0z" transform="translate(34.733199,53.965333)" fill-rule="nonzero" id="shape5"/></g></svg>