<?xml version="1.0" standalone="no"?><!DOCTYPE svg PUBLIC "-//W3C//DTD SVG 1.1//EN" "http://www.w3.org/Graphics/SVG/1.1/DTD/svg11.dtd"><svg t="1683102129586" class="icon" viewBox="0 0 1024 1024" version="1.1" xmlns="http://www.w3.org/2000/svg" p-id="69547" xmlns:xlink="http://www.w3.org/1999/xlink" width="200" height="200"><path d="M682.666667 113.777778a113.777778 113.777778 0 0 1 113.777777 113.777778v56.888888h56.888889a113.777778 113.777778 0 0 1 113.777778 113.777778v398.222222a113.777778 113.777778 0 0 1-113.777778 113.777778H170.666667a113.777778 113.777778 0 0 1-113.777778-113.777778V398.222222a113.777778 113.777778 0 0 1 113.777778-113.777778h56.888889V227.555556a113.777778 113.777778 0 0 1 113.777777-113.777778h341.333334z m0 56.888889H341.333333a56.888889 56.888889 0 0 0-56.490666 50.232889L284.444444 227.555556v56.888888a56.888889 56.888889 0 0 1-50.232888 56.490667L227.555556 341.333333H170.666667a56.888889 56.888889 0 0 0-56.490667 50.232889L113.777778 398.222222v398.222222a56.888889 56.888889 0 0 0 50.232889 56.490667L170.666667 853.333333h682.666666a56.888889 56.888889 0 0 0 56.490667-50.232889L910.222222 796.444444V398.222222a56.888889 56.888889 0 0 0-50.232889-56.490666L853.333333 341.333333h-56.888889a56.888889 56.888889 0 0 1-56.490666-50.232889L739.555556 284.444444V227.555556a56.888889 56.888889 0 0 0-50.232889-56.490667L682.666667 170.666667z" fill="#FA8E17" p-id="69548"></path><path d="M170.666667 398.222222m28.444444 0l56.888889 0q28.444444 0 28.444444 28.444445l0 0q0 28.444444-28.444444 28.444444l-56.888889 0q-28.444444 0-28.444444-28.444444l0 0q0-28.444444 28.444444-28.444445Z" fill="#FA8E17" p-id="69549"></path><path d="M341.333333 568.888889a170.666667 170.666667 0 1 0 341.333334 0 170.666667 170.666667 0 0 0-341.333334 0z" fill="#FA8E17" p-id="69550"></path></svg>