<?xml version="1.0" standalone="no"?><!DOCTYPE svg PUBLIC "-//W3C//DTD SVG 1.1//EN" "http://www.w3.org/Graphics/SVG/1.1/DTD/svg11.dtd"><svg t="1694482772094" class="icon" viewBox="0 0 1024 1024" version="1.1" xmlns="http://www.w3.org/2000/svg" p-id="12181" width="128" height="128" data-spm-anchor-id="a313x.search_index.0.i13.af3c3a81v25KVX" xmlns:xlink="http://www.w3.org/1999/xlink"><path d="M611.2 96h-198.4C236.8 96 96 236.8 96 412.8v198.4c0 172.8 140.8 316.8 316.8 316.8h198.4c172.8 0 316.8-140.8 316.8-316.8v-198.4C928 236.8 787.2 96 611.2 96z m-236.8 291.2l115.2-115.2c3.2-3.2 6.4-6.4 9.6-6.4 6.4-3.2 16-3.2 25.6 0 3.2 3.2 6.4 3.2 9.6 6.4l115.2 115.2c12.8 12.8 12.8 32 0 44.8-6.4 6.4-16 9.6-22.4 9.6s-16-3.2-22.4-9.6L544 371.2V608c0 19.2-12.8 32-32 32s-32-12.8-32-32v-240l-60.8 60.8c-6.4 6.4-16 9.6-22.4 9.6s-16-3.2-22.4-9.6c-12.8-9.6-12.8-28.8 0-41.6z m403.2 294.4c-54.4 54.4-160 80-265.6 80s-211.2-25.6-265.6-80c-12.8-12.8-12.8-32 0-44.8s32-12.8 44.8 0c83.2 83.2 358.4 83.2 441.6 0 12.8-12.8 32-12.8 44.8 0s12.8 32 0 44.8z" p-id="12182" fill="#36ab60"></path></svg>