<svg width="139" xmlns:xlink="http://www.w3.org/1999/xlink" xmlns="http://www.w3.org/2000/svg" height="118" viewBox="0 0 139 118"><defs/><path fill="#00b050" d="M21.5,.0L118.0,.0C129.8,.0,139.5,9.6,139.5,21.5L139.5,96.5C139.5,108.4,129.8,118.0,118.0,118.0L21.5,118.0C9.6,118.0,.0,108.4,.0,96.5L.0,21.5C.0,9.6,9.6,.0,21.5,.0zM33.0,82.9C33.5,82.9,33.8,82.6,33.7,82.1C33.6,81.4,33.4,80.9,33.3,80.2C32.9,76.5,36.6,68.4,38.2,65.0C45.4,49.5,45.4,49.7,45.2,48.1C45.1,47.3,43.7,44.4,42.2,44.6C40.7,44.7,34.8,49.1,33.1,50.3C31.8,51.2,30.8,51.8,30.9,53.4C30.8,53.7,30.8,54.7,31.4,54.6C31.7,54.6,32.7,54.0,32.9,53.9L37.9,51.4L38.1,51.5C34.9,56.5,32.1,61.7,29.5,67.0C28.3,69.6,26.6,75.9,26.9,78.7C27.2,81.5,29.6,81.6,31.8,82.5C32.2,82.8,32.6,82.9,33.0,82.9zM81.0,50.7C80.8,48.5,80.2,45.8,77.6,45.3C78.0,44.9,79.3,44.8,79.2,44.2C79.1,43.0,76.1,40.6,73.8,40.9C70.2,41.3,62.2,46.4,57.9,52.2C54.3,57.1,51.0,64.3,51.7,70.4C52.2,75.1,55.8,79.7,60.8,78.8C74.1,76.5,82.2,61.2,81.0,50.7zM71.2,64.7L66.3,70.1C65.2,71.4,61.8,73.9,60.2,74.1C58.6,74.2,58.1,71.1,58.0,70.0C57.7,64.4,61.3,56.2,70.6,49.6C70.7,50.0,70.9,50.6,71.3,50.5C71.9,50.5,73.1,48.3,74.5,48.2C76.1,48.0,76.9,50.0,77.0,51.1C77.4,54.7,73.4,61.7,71.2,64.7L71.2,64.7zM112.4,47.4C112.2,45.2,111.6,42.5,109.0,42.0C109.3,41.6,110.7,41.5,110.6,40.8C110.5,39.6,107.5,37.3,105.2,37.6C101.6,37.9,93.6,43.1,89.3,48.9C85.6,53.8,82.4,61.0,83.1,67.1C83.6,71.8,87.1,76.4,92.2,75.5C105.5,73.1,113.6,57.9,112.4,47.4L112.4,47.4zM102.6,61.3L97.7,66.8C96.5,68.1,93.2,70.6,91.5,70.7C90.0,70.9,89.4,67.8,89.4,66.7C89.1,61.1,92.6,52.9,102.0,46.3C102.0,46.6,102.2,47.3,102.7,47.2C103.2,47.2,104.4,45.0,105.9,44.8C107.4,44.7,108.2,46.7,108.4,47.8C108.7,51.4,104.7,58.4,102.6,61.3zM93.4,81.1C95.6,80.7,99.7,80.2,99.7,80.2C57.6,82.7,28.1,95.1,28.6,94.9C28.6,94.9,26.9,95.9,28.6,96.7C29.4,97.0,34.3,94.9,34.3,94.9C67.7,83.2,106.1,80.2,106.1,80.2C101.6,80.4,93.4,81.1,93.4,81.1L93.4,81.1zM106.1,83.5C60.0,86.2,35.1,98.1,35.1,98.1C35.1,98.1,33.4,99.2,35.1,99.9C35.9,100.3,40.8,98.1,40.8,98.1C75.4,86.1,75.5,86.4,112.6,83.5C108.1,83.7,99.9,84.3,99.9,84.3C102.1,84.0,106.1,83.5,106.1,83.5L106.1,83.5zM26.8,21.5L87.5,21.5C89.0,21.5,90.2,20.3,90.2,18.8C90.2,17.3,89.0,16.1,87.5,16.1L26.8,16.1C25.3,16.1,24.1,17.3,24.1,18.8C24.1,20.3,25.3,21.5,26.8,21.5zM26.8,32.2L57.2,32.2C58.7,32.2,59.9,31.0,59.9,29.5C59.9,28.0,58.7,26.8,57.2,26.8L26.8,26.8C25.3,26.8,24.1,28.0,24.1,29.5C24.1,31.0,25.3,32.2,26.8,32.2z" fill-rule="nonzero" id="shape1"/></svg>