<?xml version="1.0" standalone="no"?><!DOCTYPE svg PUBLIC "-//W3C//DTD SVG 1.1//EN" "http://www.w3.org/Graphics/SVG/1.1/DTD/svg11.dtd"><svg t="1683102715477" class="icon" viewBox="0 0 1024 1024" version="1.1" xmlns="http://www.w3.org/2000/svg" p-id="93885" xmlns:xlink="http://www.w3.org/1999/xlink" width="200" height="200"><path d="M463.6 224.6c-32.1 63-110.4 87.4-175 54.5-64.5-32.9-90.8-110.6-58.7-173.6 32.1-63 110.4-87.4 175-54.5 64.5 32.9 90.8 110.6 58.7 173.6z m186.8 23.3c-16.1 31.5-55.2 43.7-87.5 27.3-32.3-16.4-45.4-55.3-29.4-86.8 16.1-31.5 55.2-43.7 87.5-27.3 32.3 16.5 45.5 55.3 29.4 86.8z m162.2 100.6c-16.1 31.5-55.2 43.7-87.5 27.3-32.3-16.4-45.4-55.3-29.4-86.8 16.1-31.5 55.2-43.7 87.5-27.3 32.3 16.4 45.5 55.3 29.4 86.8z m99.6 144.1c-16.1 31.5-55.2 43.7-87.5 27.3-32.3-16.4-45.4-55.3-29.4-86.8 16.1-31.5 55.2-43.7 87.5-27.3 32.3 16.5 45.4 55.3 29.4 86.8zM320.9 376.4s88.5-81.5 239.6-26.1c0 0 227.5 97.1 157.5 328-34.2 112.8-156 332.9-343.3 280.4-45.2-12.7-158.9-83.5-90.2-180.5 24.3-34.3 90.6-76.5 76.3-149.7-9.9-51-146.9-134.2-39.9-252.1z" fill="#FF9900" p-id="93886"></path></svg>