<svg width="154" xmlns:xlink="http://www.w3.org/1999/xlink" xmlns="http://www.w3.org/2000/svg" height="144" viewBox="0 0 154 144.045"><defs/><g transform="translate(0.000000,-0.000000)" id="group1"><path fill="#fce3c3" d="M108.3,29.0L108.3,116.4L.0,116.4L.0,.0L77.1,.0L108.3,29.0z" transform="translate(43.308008,2.433008)" fill-rule="nonzero" id="shape2"/><path fill="#300604" d="M110.7,121.1L2.3,121.1L.0,118.7L.0,2.3L2.3,.0L79.4,.0L81.0,.6L112.2,29.6L113.0,31.3L113.0,118.7L110.7,121.1zM4.7,116.4L108.3,116.4L108.3,32.3L78.5,4.7L4.7,4.7L4.7,116.4z" transform="translate(40.964453,0.089258)" fill-rule="nonzero" id="shape3"/><path fill="#ed8f27" d="M.0,.0L.0,29.0L31.2,29.0L.0,.0z" transform="translate(120.390625,2.433008)" fill-rule="nonzero" id="shape4"/><path fill="#300604" d="M33.6,33.0L2.3,33.0L.0,30.7L.0,1.7L3.9,.0L35.2,29.0L33.6,33.0zM4.7,28.3L27.6,28.3L4.7,7.1L4.7,28.3z" transform="translate(118.046875,0.715039)" fill-rule="nonzero" id="shape5"/><path fill="#ed8f27" d="M13.6,6.2C13.6,10.3,16.9,13.6,21.1,13.6L27.2,13.6L21.1,13.6C16.9,13.6,13.6,16.9,13.6,21.1L13.6,27.2L13.6,21.1C13.6,16.9,10.3,13.6,6.2,13.6L.0,13.6L6.2,13.6C10.3,13.6,13.6,10.3,13.6,6.2L13.6,.0L13.6,6.2z" transform="translate(3.875000,0.000000)" fill-rule="nonzero" id="shape6"/><path fill="#ed8f27" d="M16.1,27.2L11.1,27.2L11.1,21.1C11.1,18.3,8.9,16.1,6.2,16.1L.0,16.1L.0,11.1L6.2,11.1C8.9,11.1,11.1,8.9,11.1,6.2L11.1,.0L16.1,.0L16.1,6.2C16.1,8.9,18.3,11.1,21.1,11.1L21.1,16.1C18.3,16.1,16.1,18.3,16.1,21.1L16.1,27.2zM12.8,13.6C13.1,13.9,13.4,14.1,13.6,14.4C13.9,14.1,14.1,13.9,14.4,13.6C14.1,13.4,13.9,13.1,13.6,12.8C13.4,13.1,13.1,13.4,12.8,13.6zM27.2,16.1L21.1,16.1L21.1,11.1L27.2,11.1L27.2,16.1z" transform="translate(3.874609,0.000391)" fill-rule="nonzero" id="shape7"/><path fill="#b12800" d="M5.5,36.7L.0,34.3L14.6,.0L29.0,34.3L23.5,36.7L14.5,15.4L5.5,36.7z" transform="translate(59.065234,8.784180)" fill-rule="nonzero" id="shape8"/><path fill="#b12800" d="M.0,.0L14.8,.0L14.8,6.0L.0,6.0L.0,.0z" transform="translate(65.939453,31.354492)" fill-rule="nonzero" id="shape9"/><path fill="#300604" d="M88.2,23.1L85.6,23.1C82.9,9.7,71.2,.0,57.4,.0C42.2,.0,29.8,11.7,28.6,26.6L15.5,26.6C7.0,26.6,.0,33.6,.0,42.1C.0,50.7,7.0,57.7,15.5,57.7L88.2,57.7C97.7,57.7,105.5,49.9,105.5,40.4C105.5,30.8,97.7,23.1,88.2,23.1z" transform="translate(0.000000,77.761328)" fill-rule="nonzero" id="shape10"/><path fill="#228e9d" d="M82.6,46.5L10.0,46.5C4.5,46.5,.0,42.1,.0,36.6C.0,31.1,4.5,26.6,10.0,26.6L25.8,26.6L28.7,26.4L28.6,23.2C28.6,10.4,39.0,.0,51.8,.0C63.6,.0,73.5,8.8,74.9,20.6L75.1,23.1L82.6,23.1C89.1,23.1,94.4,28.3,94.4,34.8C94.4,41.3,89.1,46.5,82.6,46.5z" transform="translate(5.574609,83.335742)" fill-rule="nonzero" id="shape11"/><path fill="#300604" d="M68.2,69.3L62.7,69.3C62.7,62.2,56.9,56.5,49.9,56.5L49.9,50.9C60.0,50.9,68.2,59.1,68.2,69.3zM12.1,40.5L17.6,40.5L17.6,53.7L12.1,53.7L12.1,40.5zM.0,21.1L5.6,21.1L5.6,44.5L.0,44.5L.0,21.1zM.0,48.0L5.6,48.0L5.6,55.3L.0,55.3L.0,48.0zM.0,59.6L5.6,59.6L5.6,63.8L.0,63.8L.0,59.6zM12.1,.0L17.6,.0L17.6,25.2L12.1,25.2L12.1,.0zM76.0,19.7L82.0,19.7L82.0,28.8L76.0,28.8L76.0,19.7zM48.5,19.1L54.5,19.1L54.5,27.7L48.5,27.7L48.5,19.1zM63.3,23.5L69.3,23.5L69.3,27.8L63.3,27.8L63.3,23.5zM55.6,101.0L80.4,101.0L80.4,106.6L55.6,106.6L55.6,101.0zM105.4,15.2L132.1,15.2L132.1,21.2L105.4,21.2L105.4,15.2zM105.4,28.5L132.1,28.5L132.1,34.5L105.4,34.5L105.4,28.5z" transform="translate(7.283984,37.469727)" fill-rule="nonzero" id="shape12"/><path fill="#300604" d="M.0,.0L26.7,.0L26.7,6.0L.0,6.0L.0,.0z" transform="translate(112.691602,85.057227)" fill-rule="nonzero" id="shape13"/><path fill="#300604" d="M.0,.0L26.7,.0L26.7,6.0L.0,6.0L.0,.0z" transform="translate(112.691602,98.311328)" fill-rule="nonzero" id="shape14"/><path fill="#300604" d="M.0,.0L17.4,.0L17.4,5.6L.0,5.6L.0,.0z" transform="translate(109.100000,125.358008)" fill-rule="nonzero" id="shape15"/><path fill="#ed8f27" d="M5.0,2.3C5.0,3.8,6.3,5.0,7.8,5.0L10.1,5.0L7.8,5.0C6.3,5.0,5.0,6.3,5.0,7.8L5.0,10.1L5.0,7.8C5.0,6.3,3.8,5.0,2.3,5.0L.0,5.0L2.3,5.0C3.8,5.0,5.0,3.8,5.0,2.3L5.0,.0L5.0,2.3z" transform="translate(1.874805,32.648828)" fill-rule="nonzero" id="shape16"/><path fill="#ed8f27" d="M6.0,10.1L4.1,10.1L4.1,7.8C4.1,6.8,3.3,6.0,2.3,6.0L.0,6.0L.0,4.1L2.3,4.1C3.3,4.1,4.1,3.3,4.1,2.3L4.1,.0L6.0,.0L6.0,2.3C6.0,3.3,6.8,4.1,7.8,4.1L7.8,6.0C6.8,6.0,6.0,6.8,6.0,7.8L6.0,10.1zM4.8,5.0C4.9,5.1,5.0,5.2,5.0,5.3C5.1,5.2,5.2,5.1,5.3,5.0C5.2,5.0,5.1,4.9,5.0,4.8C5.0,4.9,4.9,5.0,4.8,5.0zM10.1,6.0L7.8,6.0L7.8,4.1L10.1,4.1L10.1,6.0z" transform="translate(1.874805,32.648633)" fill-rule="nonzero" id="shape17"/></g></svg>