<?xml version="1.0" standalone="no"?><!DOCTYPE svg PUBLIC "-//W3C//DTD SVG 1.1//EN" "http://www.w3.org/Graphics/SVG/1.1/DTD/svg11.dtd"><svg t="1683102511230" class="icon" viewBox="0 0 1024 1024" version="1.1" xmlns="http://www.w3.org/2000/svg" p-id="84698" xmlns:xlink="http://www.w3.org/1999/xlink" width="200" height="200"><path d="M245 85.8c-75.1 0-141.4 67.5-158 163.8-30.1 173.7-30.1 347.3 0 521 16.7 96.3 83 163.8 158 163.8 76.5 0 143.7-70 158.8-168.6 26.1-170.5 26.1-341 0-511.5C388.7 155.8 321.5 85.8 245 85.8z m695.8 168.6C925.7 155.8 858.5 85.8 782 85.8c-75.1 0-141.4 67.5-158 163.8-30.1 173.7-30.1 347.3 0 521 16.7 96.3 83 163.8 158 163.8 76.5 0 143.7-70 158.8-168.6 26.1-170.4 26.1-340.9 0-511.4z" p-id="84699" fill="#1afa29"></path></svg>