<?xml version="1.0" standalone="no"?><!DOCTYPE svg PUBLIC "-//W3C//DTD SVG 1.1//EN" "http://www.w3.org/Graphics/SVG/1.1/DTD/svg11.dtd"><svg t="1683101764482" class="icon" viewBox="0 0 1024 1024" version="1.1" xmlns="http://www.w3.org/2000/svg" p-id="34469" xmlns:xlink="http://www.w3.org/1999/xlink" width="200" height="200"><path d="M512 128a384 384 0 1 0 0 768A384 384 0 0 0 512 128z m22.784 534.464a32 32 0 0 1-45.248 0.32l-128-126.208a31.872 31.872 0 0 1-0.32-45.184l128-129.792a31.936 31.936 0 1 1 45.568 44.864L429.248 513.472l105.216 103.68a32 32 0 0 1 0.32 45.312z m127.68-45.248a32 32 0 1 1-44.928 45.568l-128-126.208a31.872 31.872 0 0 1-0.32-45.184l128-129.792a32 32 0 1 1 45.632 44.928l-105.6 106.944 105.216 103.744z" fill="#F5A623" p-id="34470"></path></svg>