<?xml version="1.0" standalone="no"?><!DOCTYPE svg PUBLIC "-//W3C//DTD SVG 1.1//EN" "http://www.w3.org/Graphics/SVG/1.1/DTD/svg11.dtd"><svg t="1683101937679" class="icon" viewBox="0 0 1024 1024" version="1.1" xmlns="http://www.w3.org/2000/svg" p-id="54214" xmlns:xlink="http://www.w3.org/1999/xlink" width="200" height="200"><path d="M840.5 64.3v283.6c0 50.1-39.8 89.6-89.6 89.6H273.1c-49.8 0-89.6-39.4-89.6-89.6V64.3C117.2 64.3 64 118 64 184.3v655.6C64 906.2 117.8 960 184.1 960h655.7c66.3 0 120.1-53.8 120.1-120.1V184.3c0.1-66.3-53.1-120-119.4-120z m0.4 791.3c0 24.7-20.1 44.8-44.8 44.8H228.5c-24.7 0-44.8-20.1-44.8-44.8V542c0-24.7 20.1-44.8 44.8-44.8h567.6c24.7 0 44.8 20.1 44.8 44.8v313.6z" fill="#d81e06" p-id="54215"></path><path d="M796.8 64.3h-0.6c0.2 0.2 0.4 0.4 0.6 0zM227.9 64.3h0.4c0-0.5-0.2-0.3-0.4 0zM795.7 64.3h0.4c-0.2-0.3-0.4-0.5-0.4 0zM273.1 392.7h477.8c27.5 0 44.8-17.3 44.8-44.8V64.3H228.3v283.6c0 27.5 17.3 44.8 44.8 44.8z m358.6-245.1v-0.1c0-13 10-23.5 22.3-23.5s22.3 10.5 22.3 23.6v161.8c0 13-10 23.6-22.3 23.6-12.4 0-22.3-10.6-22.3-23.6V147.6zM227.9 64.3h-0.6c0.1 0.4 0.3 0.2 0.6 0zM743.5 602H280.4c-12.2 0-22.1 9.9-22.1 22.1v0.1c0 12.2 9.9 22.1 22.1 22.1h463.1c12.2 0 22.1-9.9 22.1-22.1v-0.1c0-12.2-9.9-22.1-22.1-22.1zM743.2 750.5H280.7c-12.4 0-22.4 10-22.4 22.4v0.2c0 12.4 10 22.4 22.4 22.4h462.5c12.4 0 22.4-10 22.4-22.4v-0.2c0-12.3-10-22.4-22.4-22.4z" fill="#d81e06" p-id="54216"></path></svg>