<svg width="162" xmlns:xlink="http://www.w3.org/1999/xlink" xmlns="http://www.w3.org/2000/svg" height="163" viewBox="0 0 162 162.637"><defs/><g id="group1"><path fill="#ffffff" d="M97.2,115.0L1.7,115.0C.7,115.0,.0,114.2,.0,113.3L.0,1.7C.0,.7,.7,.0,1.7,.0L97.2,.0C98.1,.0,98.8,.7,98.8,1.7L98.8,113.3C98.8,114.2,98.1,115.0,97.2,115.0z" transform="translate(41.328125,3.320312)" fill-rule="nonzero" id="shape2"/><path fill="#03a9f4" d="M100.5,121.6L5.0,121.6C2.2,121.6,.0,119.4,.0,116.6L.0,5.0C.0,2.2,2.2,.0,5.0,.0L100.5,.0C103.2,.0,105.5,2.2,105.5,5.0L105.5,116.6C105.5,119.4,103.2,121.6,100.5,121.6zM6.6,115.0L98.8,115.0L98.8,6.6L6.6,6.6L6.6,115.0z" transform="translate(38.007813,0.000000)" fill-rule="nonzero" id="shape3"/><path fill="#ffffff" d="M97.2,114.9L1.7,114.9C.7,114.9,.0,114.2,.0,113.3L.0,1.7C.0,.7,.7,.0,1.7,.0L97.2,.0C98.1,.0,98.8,.7,98.8,1.7L98.8,113.3C98.8,114.2,98.1,114.9,97.2,114.9z" transform="translate(28.359375,14.667969)" fill-rule="nonzero" id="shape4"/><path fill="#03a9f4" d="M100.5,121.6L5.0,121.6C2.2,121.6,.0,119.3,.0,116.6L.0,5.0C.0,2.2,2.2,.0,5.0,.0L100.5,.0C103.2,.0,105.5,2.2,105.5,5.0L105.5,116.6C105.5,119.3,103.2,121.6,100.5,121.6zM6.6,114.9L98.8,114.9L98.8,6.6L6.6,6.6L6.6,114.9z" transform="translate(25.039062,11.347656)" fill-rule="nonzero" id="shape5"/><path fill="#546e7a" d="M15.8,25.6L.1,25.6L.1,21.4L5.4,21.4L5.4,5.3L.0,6.5L.0,2.2L10.6,.0L10.6,21.4L15.8,21.4L15.8,25.6L15.8,25.6z" transform="translate(46.503906,32.558594)" fill-rule="nonzero" id="shape6"/><path fill="#546e7a" d="M16.6,26.5L.1,26.5L.1,21.5L5.4,21.5L5.4,6.4L.0,7.6L.0,2.4L11.4,.0L11.4,21.5L16.6,21.5L16.6,26.5zM1.0,25.7L15.8,25.7L15.8,22.3L10.6,22.3L10.6,1.1L.8,3.1L.8,6.5L6.2,5.3L6.2,22.3L1.0,22.3L1.0,25.7zM21.9,14.0C21.9,9.6,22.7,6.3,24.3,4.0C25.9,1.7,28.2,.6,31.2,.6C37.0,.6,39.9,4.8,39.9,13.4C39.9,17.6,39.1,20.8,37.5,23.1C36.0,25.4,33.7,26.5,30.7,26.5C24.8,26.5,21.9,22.3,21.9,14.0zM27.2,13.8C27.2,19.6,28.4,22.5,30.9,22.5C33.3,22.5,34.6,19.5,34.6,13.6C34.6,7.6,33.4,4.6,31.0,4.6C28.5,4.6,27.2,7.7,27.2,13.8z" transform="translate(46.093750,32.031250)" fill-rule="nonzero" id="shape7"/><path fill="#546e7a" d="M9.2,26.8C6.7,26.8,4.6,26.0,3.2,24.6C1.1,22.5,.0,18.8,.0,13.8C.0,9.4,.8,6.0,2.5,3.6C4.1,1.2,6.6,.0,9.7,.0C15.8,.0,18.8,4.5,18.8,13.2C18.8,17.5,18.0,20.8,16.4,23.2C14.8,25.5,12.4,26.8,9.3,26.8L9.2,26.8L9.2,26.8zM9.7,.8C6.9,.8,4.6,1.9,3.2,4.1C1.6,6.3,.8,9.6,.8,13.8C.8,18.6,1.8,22.0,3.8,24.0C5.1,25.3,6.9,26.0,9.2,26.0L9.3,26.0C12.1,26.0,14.2,24.9,15.7,22.7C17.2,20.5,18.0,17.3,18.0,13.2C18.0,4.9,15.3,.8,9.7,.8zM9.4,22.8C6.7,22.8,5.3,19.7,5.3,13.7C5.3,7.2,6.7,4.0,9.5,4.0C12.2,4.0,13.5,7.1,13.5,13.4C13.5,19.6,12.1,22.8,9.4,22.8zM9.5,4.9C7.2,4.9,6.1,7.8,6.1,13.7C6.1,19.2,7.2,22.0,9.4,22.0C11.6,22.0,12.7,19.1,12.7,13.4C12.7,7.8,11.6,4.9,9.5,4.9zM23.5,13.8C23.5,9.5,24.3,6.2,25.9,3.9C27.5,1.6,29.8,.4,32.8,.4C38.6,.4,41.4,4.7,41.4,13.2C41.4,17.4,40.7,20.7,39.1,22.9C37.5,25.2,35.3,26.4,32.3,26.4C26.4,26.4,23.5,22.2,23.5,13.8zM28.8,13.7C28.8,19.5,30.0,22.4,32.5,22.4C34.9,22.4,36.1,19.4,36.1,13.4C36.1,7.4,34.9,4.4,32.6,4.4C30.0,4.5,28.8,7.5,28.8,13.7z" transform="translate(67.578125,32.167969)" fill-rule="nonzero" id="shape8"/><path fill="#546e7a" d="M53.9,26.8C51.4,26.8,49.4,26.0,47.9,24.5C45.8,22.4,44.7,18.8,44.7,13.8C44.7,9.4,45.5,6.0,47.2,3.6C48.8,1.2,51.3,.0,54.5,.0C60.5,.0,63.5,4.5,63.5,13.2C63.5,17.5,62.7,20.8,61.1,23.2C59.5,25.5,57.1,26.8,54.0,26.8L53.9,26.8zM54.5,.8C51.6,.8,49.4,1.9,47.9,4.1C46.3,6.3,45.5,9.6,45.5,13.8C45.5,18.6,46.5,22.0,48.5,24.0C49.8,25.3,51.6,26.0,53.9,26.0L54.0,26.0C56.8,26.0,58.9,24.9,60.4,22.7C61.9,20.5,62.7,17.3,62.7,13.2C62.7,4.9,60.0,.8,54.5,.8zM54.1,22.8C51.4,22.8,50.0,19.7,50.0,13.7C50.0,7.3,51.4,4.0,54.2,4.0C56.9,4.0,58.2,7.1,58.2,13.4C58.2,19.6,56.8,22.8,54.1,22.8zM54.2,4.9C52.0,4.9,50.8,7.8,50.8,13.7C50.8,19.2,51.9,22.0,54.1,22.0C56.3,22.0,57.4,19.1,57.4,13.4C57.3,7.8,56.3,4.9,54.2,4.9zM31.9,69.4L.0,69.4L.0,58.8L31.9,58.8L31.9,69.4zM63.7,37.6L.0,37.6L.0,48.1L63.7,48.1L63.7,37.6z" transform="translate(45.937500,32.167969)" fill-rule="nonzero" id="shape9"/><path fill="#ffca28" d="M136.2,15.3L152.1,15.3C157.6,15.3,162.1,19.8,162.1,25.3L162.1,79.4L.0,79.4L.2,74.9L.2,10.0C.2,4.5,4.6,.0,10.2,.0L59.4,.0C64.9,.0,69.4,4.5,69.4,10.0L69.4,15.3L127.3,15.3M152.2,87.8L9.9,87.8C4.9,87.8,.8,84.2,.0,79.4L162.1,79.4C161.3,84.2,157.2,87.8,152.2,87.8z" transform="translate(0.000000,74.804688)" fill-rule="nonzero" id="shape10"/><path fill="#ffa000" d="M162.2,61.1L.1,61.1L.1,55.0L162.2,55.0L162.2,61.1zM.1,4.4L12.9,4.4C13.9,4.4,14.6,3.4,14.6,2.2C14.6,1.0,13.9,.0,12.9,.0L.1,.0M.1,15.1L12.9,15.1C13.9,15.1,14.6,14.1,14.6,12.9C14.6,11.7,13.9,10.7,12.9,10.7L.1,10.7M.0,25.6L12.8,25.6C13.7,25.6,14.5,24.6,14.5,23.4C14.5,22.2,13.7,21.2,12.8,21.2L.0,21.2" transform="translate(0.000000,90.351563)" fill-rule="nonzero" id="shape11"/></g></svg>