<?xml version="1.0" standalone="no"?>
<!DOCTYPE svg PUBLIC "-//W3C//DTD SVG 1.1//EN" "http://www.w3.org/Graphics/SVG/1.1/DTD/svg11.dtd">
<svg t="1683102992426" class="icon" viewBox="0 0 1024 1024" version="1.1" xmlns="http://www.w3.org/2000/svg" p-id="106304" xmlns:xlink="http://www.w3.org/1999/xlink" width="200" height="200">
<path d="M512 0a512 512 0 1 0 0 1024A512 512 0 0 0 512 0zM250.587429 744.228571l12.361142-41.325714c25.161143-91.136 80.018286-147.894857 128-144.164571 9.728 0.731429 24.941714 4.461714 42.642286 20.187428 13.750857 18.797714 16.237714 33.938286 15.725714 44.470857-2.267429 52.150857-81.115429 103.350857-198.729142 120.832zM697.051429 522.093714a247.588571 247.588571 0 0 1-56.905143 38.619429c-3.218286 71.241143-40.082286 142.262857-101.595429 171.154286a152.868571 152.868571 0 0 1-62.098286 13.677714c45.787429-46.006857 48.493714-120.685714 4.461715-169.398857l-41.252572-45.714286A123.318857 123.318857 0 0 0 270.628571 517.924571c2.633143-21.211429 8.923429-41.837714 19.968-60.416 39.643429-66.925714 129.097143-95.378286 207.725715-80.384 9.728-13.312 20.48-26.185143 33.426285-37.888 70.363429-63.561143 164.205714-77.604571 228.498286-40.301714 30.573714 67.657143 7.168 159.597714-63.195428 223.158857z" p-id="106305"></path>
<path d="M577.243429 466.505143a52.370286 52.370286 0 1 0 77.750857-70.217143 52.370286 52.370286 0 0 0-77.750857 70.217143z" fill="#FFCA00" p-id="106306"></path>
</svg>