<?xml version="1.0" standalone="no"?><!DOCTYPE svg PUBLIC "-//W3C//DTD SVG 1.1//EN" "http://www.w3.org/Graphics/SVG/1.1/DTD/svg11.dtd"><svg class="icon" width="32px" height="28.32px" viewBox="0 0 1157 1024" version="1.1" xmlns="http://www.w3.org/2000/svg"><path d="M226.26229502 934.45901651c6.39344268-3.93442646 13.27868877-7.37704951 20.6557374-9.83606573l160.32786943-71.31147539s43.27868847-13.27868877 55.081967-26.55737666c7.86885205-8.85245888 10.32786914-38.36065606 0.49180342-57.54098408-9.83606572-19.18032802-90.98360684-124.91803301-90.98360684-213.44262275 0-143.1147542 93.93442646-258.6885249 209.9999997-258.6885249s209.99999971 116.06557412 210.00000059 258.6885249c0 92.45901621-90.98360684 194.26229473-98.36065546 219.34426201-7.37704951 25.08196729-7.86885205 44.75409873 0.49180253 53.11475419 13.27868877 12.78688536 47.21311494 26.06557412 47.21311494 26.06557413l177.54098379 69.34426172c3.93442646 1.47541026 7.37704951 2.95081963 10.81967168 4.91803329 86.55737695-89.01639316 139.67213115-210.49180312 139.67213115-344.26229501 0-272.95081963-221.31147568-494.26229531-494.26229443-494.26229531S80.19672119 310.85245918 80.19672119 583.80327881c0 137.21311494 56.06557383 261.14754112 146.06557383 350.6557377z" fill="#666666" /></svg>